<svg xml:space="preserve" style="max-height: 500px" viewBox="0 0 62.4 62.7" y="0px" x="0px" id="Layer_1" xmlns:xlink="http://www.w3.org/1999/xlink" xmlns="http://www.w3.org/2000/svg" width="62.4" height="62.7"><style type="text/css">	.st0{fill:#EC1C24;}	.st1{fill:#221F1F;}	.st2{fill:url(#SVGID_1_);}	.st3{fill:#FFFFFF;}</style><g>	<g>		<path d="M83.5,27.3h11.5v4.6H77.5v-23h6V27.3z" class="st0"/>		<path d="M102,31.9v-23h17.9v4.6H108v4.7h9.5v4.4H108v4.7h12.4v4.6H102z" class="st0"/>		<path d="M136.5,8.6c2.1,0,4,0.3,5.7,1c1.6,0.7,3.1,1.6,4.3,2.9l-2.9,3.9c-1-1-2.1-1.8-3.2-2.4   c-1.1-0.5-2.5-0.8-3.9-0.8c-0.9,0-1.6,0.1-2.1,0.3c-0.5,0.2-0.9,0.4-1.1,0.8c-0.2,0.3-0.3,0.7-0.3,1.1c0,0.5,0.2,0.9,0.7,1.2   c0.5,0.3,1.2,0.6,2.2,0.9l3.9,0.9c2.3,0.5,4,1.3,5.1,2.3c1.1,1,1.6,2.4,1.6,4.1c0,1.6-0.4,3-1.3,4.1c-0.8,1.1-2,2-3.4,2.5   c-1.5,0.6-3.1,0.9-5,0.9c-1.5,0-3-0.2-4.4-0.5s-2.6-0.8-3.8-1.4c-1.1-0.6-2.1-1.3-2.8-2.2l2.9-4c0.6,0.7,1.3,1.3,2.1,1.8   c0.8,0.5,1.8,0.9,2.8,1.2c1,0.3,2,0.5,3.1,0.5c0.8,0,1.5-0.1,2-0.2c0.5-0.2,0.9-0.4,1.2-0.7c0.3-0.3,0.4-0.7,0.4-1.1   c0-0.5-0.2-0.9-0.5-1.2c-0.3-0.3-1-0.6-2-0.9l-4.3-0.9c-1.3-0.3-2.5-0.7-3.5-1.2c-1-0.5-1.8-1.2-2.4-2c-0.6-0.8-0.9-1.9-0.9-3.2   c0-1.4,0.4-2.7,1.2-3.9c0.8-1.1,1.9-2,3.4-2.7C132.6,8.9,134.4,8.6,136.5,8.6z" class="st0"/>		<path d="M172.4,8.9v4.6h-7.5v18.4h-6V13.6h-7.5V8.9H172.4z" class="st0"/>		<path d="M188.6,8.6c2.3,0,4.3,0.5,6,1.4c1.7,0.9,3,2.3,3.9,4.1c0.9,1.8,1.4,3.9,1.4,6.4c0,2.5-0.5,4.6-1.4,6.4   c-0.9,1.8-2.2,3.1-3.9,4.1c-1.7,0.9-3.7,1.4-6,1.4c-2.3,0-4.3-0.5-6-1.4c-1.7-0.9-3-2.3-3.9-4.1s-1.4-3.9-1.4-6.4   c0-2.5,0.5-4.6,1.4-6.4c0.9-1.8,2.2-3.1,3.9-4.1C184.3,9,186.3,8.6,188.6,8.6z M188.6,13.3c-1.1,0-2.1,0.3-2.8,0.8   c-0.8,0.5-1.3,1.3-1.7,2.4c-0.4,1.1-0.6,2.4-0.6,4c0,1.6,0.2,2.9,0.6,3.9s1,1.9,1.7,2.4c0.8,0.5,1.7,0.8,2.8,0.8   c1.1,0,2-0.3,2.8-0.8c0.8-0.5,1.3-1.3,1.7-2.4s0.6-2.4,0.6-3.9c0-1.6-0.2-2.9-0.6-4c-0.4-1.1-1-1.9-1.7-2.4   C190.7,13.5,189.7,13.3,188.6,13.3z" class="st0"/>	</g>	<g>		<path d="M81.5,43.7c0.9,0,1.6,0.2,2.2,0.5c0.6,0.3,1.1,0.8,1.5,1.3s0.5,1.3,0.5,2c0,0.8-0.2,1.5-0.5,2s-0.8,1-1.5,1.3   c-0.6,0.3-1.4,0.5-2.2,0.5h-2.9v4.9H77V43.7H81.5z M81.3,49.9c1,0,1.7-0.2,2.2-0.6c0.5-0.4,0.7-1,0.7-1.8c0-0.8-0.2-1.4-0.7-1.8   c-0.5-0.4-1.2-0.6-2.2-0.6h-2.7v4.8H81.3z" class="st1"/>		<path d="M93.9,43.7c1.3,0,2.3,0.3,3.1,1c0.8,0.7,1.2,1.6,1.2,2.7c0,1.1-0.4,2-1.2,2.6c-0.8,0.6-1.8,0.9-3.1,0.9   L93.8,51h-3.1v5.2h-1.5V43.7H93.9z M93.9,49.6c0.9,0,1.6-0.2,2-0.6c0.4-0.4,0.7-0.9,0.7-1.7c0-0.7-0.2-1.3-0.7-1.7   c-0.4-0.4-1.1-0.6-2-0.6h-3.2v4.5H93.9z M94.8,49.9l4.2,6.4h-1.8l-3.6-5.5L94.8,49.9z" class="st1"/>		<path d="M107.3,43.5c1.2,0,2.2,0.3,3.1,0.8c0.9,0.5,1.5,1.3,2,2.2c0.5,1,0.7,2.1,0.7,3.5c0,1.3-0.2,2.5-0.7,3.5   c-0.5,1-1.2,1.7-2,2.2c-0.9,0.5-1.9,0.8-3.1,0.8s-2.2-0.3-3.1-0.8c-0.9-0.5-1.5-1.3-2-2.2c-0.5-1-0.7-2.1-0.7-3.5   c0-1.3,0.2-2.5,0.7-3.5c0.5-1,1.2-1.7,2-2.2C105.1,43.8,106.1,43.5,107.3,43.5z M107.3,44.9c-0.9,0-1.6,0.2-2.3,0.6   c-0.6,0.4-1.1,1-1.5,1.7c-0.3,0.8-0.5,1.7-0.5,2.7c0,1.1,0.2,2,0.5,2.7s0.8,1.3,1.5,1.7c0.6,0.4,1.4,0.6,2.3,0.6   c0.9,0,1.6-0.2,2.3-0.6c0.6-0.4,1.1-1,1.5-1.7c0.3-0.8,0.5-1.7,0.5-2.7c0-1.1-0.2-2-0.5-2.7c-0.3-0.8-0.8-1.3-1.5-1.7   C108.9,45.1,108.2,44.9,107.3,44.9z" class="st1"/>		<path d="M121,43.7c2,0,3.5,0.5,4.6,1.6c1.1,1.1,1.7,2.6,1.7,4.7c0,2-0.6,3.6-1.7,4.7c-1.1,1.1-2.7,1.6-4.6,1.6H117   V43.7H121z M121.2,54.8c1.4,0,2.6-0.4,3.4-1.3c0.8-0.9,1.2-2.1,1.2-3.6c0-1.5-0.4-2.7-1.2-3.6c-0.8-0.9-1.9-1.3-3.4-1.3h-2.7v9.7   H121.2z" class="st1"/>		<path d="M140.8,43.7v7.9c0,1.6-0.4,2.8-1.3,3.7c-0.9,0.8-2.1,1.2-3.7,1.2c-1.6,0-2.8-0.4-3.7-1.2   c-0.9-0.8-1.3-2-1.3-3.7v-7.9h1.5v7.5c0,1.3,0.3,2.3,0.8,2.9c0.6,0.6,1.4,0.9,2.6,0.9s2-0.3,2.6-0.9c0.6-0.6,0.8-1.6,0.8-2.9v-7.5   H140.8z" class="st1"/>		<path d="M155.4,53.1c-0.3,0.7-0.6,1.3-1.1,1.8c-0.5,0.5-1.1,0.9-1.7,1.2c-0.7,0.3-1.4,0.4-2.2,0.4   c-1.2,0-2.2-0.3-3.1-0.8c-0.9-0.5-1.5-1.3-2-2.2c-0.5-1-0.7-2.1-0.7-3.5c0-1.3,0.2-2.5,0.7-3.5c0.5-1,1.2-1.7,2-2.2   c0.9-0.5,1.9-0.8,3.1-0.8c0.8,0,1.5,0.1,2.2,0.3c0.6,0.2,1.2,0.6,1.6,1s0.8,1,1.1,1.6l-1.5,0.7c-0.3-0.7-0.7-1.3-1.2-1.7   c-0.5-0.4-1.2-0.6-2.1-0.6c-0.9,0-1.6,0.2-2.3,0.6c-0.6,0.4-1.2,1-1.5,1.7c-0.4,0.8-0.5,1.7-0.5,2.7c0,1.1,0.2,2,0.5,2.7   s0.8,1.3,1.5,1.7c0.6,0.4,1.4,0.6,2.3,0.6c0.8,0,1.6-0.2,2.2-0.6c0.6-0.4,1.1-1.1,1.4-1.9L155.4,53.1z" class="st1"/>		<path d="M167.6,43.7v1.4h-4.4v11.2h-1.5V45.1h-4.4v-1.4H167.6z" class="st1"/>	</g>	<g>		<linearGradient y2="62.3353" x2="30.9868" y1="0.3617" x1="30.9868" gradientUnits="userSpaceOnUse" id="SVGID_1_">			<stop style="stop-color:#EC1C24" offset="0"/>			<stop style="stop-color:#E31C23" offset="0.1888"/>			<stop style="stop-color:#BD1A21" offset="0.9972"/>		</linearGradient>		<polygon points="62,31.8 62,0.4 12.8,0.4 0,13.3 0,62.3 31.4,62.3" class="st2"/>		<g>			<polygon points="23.4,33.5 18.6,33.5 18.5,10.1 9.8,18.9 9.9,42.2 23.4,42.2" class="st3"/>			<polygon points="24.9,52.6 24.9,52.6 24.8,52.6" class="st3"/>			<path d="M36.4,33.8h-1.8l0,9l13.2-13.3c-0.8-5.7-5.6-10.1-11.5-10.1c-6,0-10.9,4.5-11.5,10.4l-0.1,0.7    c0,0.2,0,0.4,0,0.5l0.1,21.6l8.6-8.7c0-4.3,0-8.6,0-12.9c0-1.5,1.3-2.8,2.8-2.8c1.6,0,2.8,1.3,2.8,2.8    C39.1,32.5,37.9,33.8,36.4,33.8z" class="st3"/>		</g>	</g></g></svg>